<svg width="37" height="41" viewBox="0 0 37 41" fill="none" xmlns="http://www.w3.org/2000/svg">
<path d="M20.7083 0.625C12.4271 0.625 5.69167 7.1175 5.29417 15.2883L1.05417 20.9417C0.502082 21.6704 1.03208 22.7083 1.9375 22.7083H5.25V29.3333C5.25 31.7625 7.2375 33.75 9.66667 33.75H11.875V40.375H27.3333V30.04C32.545 27.5667 36.1667 22.2446 36.1667 16.0833C36.1667 7.53708 29.2546 0.625 20.7083 0.625ZM27.3333 16.0833C27.3333 16.3704 27.3112 16.6575 27.2892 16.9446L29.1221 18.4021C29.2987 18.5346 29.3429 18.7554 29.2325 18.9542L27.4658 22.0237C27.3554 22.2225 27.1125 22.2887 26.9358 22.2225L24.7496 21.3392C24.2858 21.6925 23.8 21.9796 23.27 22.2004L22.9167 24.5412C22.8946 24.7621 22.6958 24.9167 22.475 24.9167H18.9417C18.7208 24.9167 18.5442 24.7621 18.5 24.5412L18.1687 22.2004C17.6167 21.9796 17.1308 21.6925 16.6671 21.3392L14.4808 22.2225C14.2821 22.2887 14.0392 22.2225 13.9287 22.0237L12.1621 18.9542C12.0517 18.7775 12.0958 18.5346 12.2725 18.4021L14.1275 16.9446C14.1054 16.6575 14.0833 16.3704 14.0833 16.0833C14.0833 15.7962 14.1275 15.4871 14.1717 15.2221L12.2946 13.7646C12.1179 13.6321 12.0737 13.4112 12.1842 13.1904L13.9508 10.1429C14.0612 9.94417 14.2821 9.87792 14.4808 9.94417L16.6892 10.8275C17.1308 10.4962 17.6388 10.1871 18.1687 9.96625L18.5 7.62542C18.5442 7.40458 18.7208 7.25 18.9417 7.25H22.475C22.6958 7.25 22.8725 7.40458 22.9167 7.62542L23.2479 9.96625C23.7779 10.1871 24.2637 10.4742 24.7275 10.8275L26.9358 9.94417C27.1346 9.87792 27.3775 9.94417 27.4658 10.1429L29.2325 13.1904C29.3429 13.3892 29.2987 13.6321 29.1221 13.7646L27.245 15.2221C27.3112 15.4871 27.3333 15.7742 27.3333 16.0833Z" fill="white"/>
</svg>
