<svg width="53" height="53" viewBox="0 0 53 53" fill="none" xmlns="http://www.w3.org/2000/svg">
<g clip-path="url(#clip0_109_1428)">
<path d="M46.375 26.9858C46.375 14.8621 36.9675 6.625 26.5 6.625C16.1429 6.625 6.62499 14.6854 6.62499 27.1183C5.29999 27.8692 4.41666 29.2825 4.41666 30.9167V35.3333C4.41666 37.7625 6.40416 39.75 8.83332 39.75H11.0417V26.2792C11.0417 17.7329 17.9537 10.8208 26.5 10.8208C35.0462 10.8208 41.9583 17.7329 41.9583 26.2792V41.9583H24.2917V46.375H41.9583C44.3875 46.375 46.375 44.3875 46.375 41.9583V39.2642C47.6779 38.5796 48.5833 37.2325 48.5833 35.6425V30.5633C48.5833 29.0175 47.6779 27.6704 46.375 26.9858Z" fill="white"/>
<path d="M19.875 30.9167C21.0946 30.9167 22.0833 29.928 22.0833 28.7083C22.0833 27.4887 21.0946 26.5 19.875 26.5C18.6554 26.5 17.6667 27.4887 17.6667 28.7083C17.6667 29.928 18.6554 30.9167 19.875 30.9167Z" fill="white"/>
<path d="M33.125 30.9167C34.3446 30.9167 35.3333 29.928 35.3333 28.7083C35.3333 27.4887 34.3446 26.5 33.125 26.5C31.9054 26.5 30.9167 27.4887 30.9167 28.7083C30.9167 29.928 31.9054 30.9167 33.125 30.9167Z" fill="white"/>
<path d="M39.75 24.3579C38.69 18.0642 33.2133 13.25 26.6104 13.25C19.9192 13.25 12.72 18.7929 13.2942 27.4937C18.7488 25.2633 22.8563 20.405 24.0267 14.4867C26.9196 20.2946 32.86 24.2917 39.75 24.3579Z" fill="white"/>
</g>
<defs>
<clipPath id="clip0_109_1428">
<rect width="53" height="53" fill="white"/>
</clipPath>
</defs>
</svg>
