<svg width="31" height="52" viewBox="0 0 31 52" fill="none" xmlns="http://www.w3.org/2000/svg">
<path d="M25.0385 0H5.96154C2.67077 0 0 2.64727 0 5.90909V46.0909C0 49.3527 2.67077 52 5.96154 52H25.0385C28.3292 52 31 49.3527 31 46.0909V5.90909C31 2.64727 28.3292 0 25.0385 0ZM15.5 49.6364C13.5208 49.6364 11.9231 48.0527 11.9231 46.0909C11.9231 44.1291 13.5208 42.5455 15.5 42.5455C17.4792 42.5455 19.0769 44.1291 19.0769 46.0909C19.0769 48.0527 17.4792 49.6364 15.5 49.6364ZM26.2308 40.1818H4.76923V7.09091H26.2308V40.1818Z" fill="#FBFCFC"/>
</svg>
